<svg  xmlns="http://www.w3.org/2000/svg" xmlns:xlink="http://www.w3.org/1999/xlink"  version="1.1" x="0px" y="0px" viewBox="0 0 100 125" enable-background="new 0 0 100 100" xml:space="preserve"><g><g><path fill="none" d="M49.988,48.601c-1.384,0.047-2.574,0.688-2.574,1.399c0,0.709,1.183,1.348,2.585,1.398    c1.402-0.05,2.585-0.689,2.585-1.398C52.585,49.289,51.396,48.649,49.988,48.601z"/><circle fill="none" cx="7.066" cy="50.016" r="1.372"/><circle fill="none" cx="92.934" cy="50.016" r="1.372"/><path d="M7.066,47.95C5.927,47.95,5,48.877,5,50.016c0,1.139,0.927,2.066,2.066,2.066s2.066-0.927,2.066-2.066    C9.131,48.877,8.205,47.95,7.066,47.95z M7.066,51.388c-0.756,0-1.372-0.615-1.372-1.372c0-0.756,0.615-1.372,1.372-1.372    s1.372,0.616,1.372,1.372C8.437,50.772,7.822,51.388,7.066,51.388z"/><path d="M92.934,47.95c-1.139,0-2.066,0.927-2.066,2.066c0,1.139,0.927,2.066,2.066,2.066S95,51.155,95,50.016    C95,48.877,94.073,47.95,92.934,47.95z M92.934,51.388c-0.756,0-1.372-0.615-1.372-1.372c0-0.756,0.615-1.372,1.372-1.372    s1.372,0.616,1.372,1.372C94.306,50.772,93.691,51.388,92.934,51.388z"/><path d="M53.279,50c0-1.13-1.405-2.03-3.291-2.092c-1.863,0.062-3.267,0.962-3.267,2.092c0,1.13,1.405,2.03,3.267,2.092    c0.004,0,0.008,0,0.012,0c0.004,0,0.008,0,0.012,0C51.874,52.03,53.279,51.131,53.279,50z M50,51.399    c-1.403-0.05-2.585-0.689-2.585-1.398c0-0.711,1.189-1.352,2.574-1.399c1.408,0.047,2.597,0.688,2.597,1.399    C52.585,50.709,51.402,51.348,50,51.399z"/><path d="M48.767,52.424c-1.46-0.078-2.604-1.142-2.604-2.424s1.144-2.346,2.604-2.424c0.191-0.011,0.338-0.174,0.328-0.365    c-0.01-0.191-0.174-0.338-0.365-0.328c-1.704,0.091-3.063,1.287-3.24,2.786H10.984l-1.501-1.717    c-0.126-0.144-0.345-0.159-0.489-0.033c-0.144,0.126-0.159,0.345-0.033,0.489l1.398,1.599l-1.288,1.375    c-0.131,0.14-0.124,0.359,0.016,0.49c0.067,0.063,0.152,0.094,0.237,0.094c0.092,0,0.185-0.037,0.253-0.11l1.4-1.494h34.518    c0.192,1.484,1.542,2.664,3.235,2.754c0.006,0,0.013,0,0.019,0c0.183,0,0.336-0.143,0.346-0.329    C49.105,52.598,48.958,52.434,48.767,52.424z"/><path d="M89.641,50.008l1.398-1.599c0.126-0.144,0.111-0.363-0.033-0.489c-0.144-0.126-0.363-0.111-0.489,0.033l-1.501,1.717    H54.51c-0.177-1.498-1.535-2.694-3.24-2.786c-0.19-0.01-0.355,0.137-0.365,0.328c-0.01,0.191,0.137,0.355,0.328,0.365    c1.46,0.078,2.604,1.143,2.604,2.424s-1.144,2.346-2.604,2.424c-0.191,0.01-0.338,0.174-0.328,0.365    c0.01,0.185,0.163,0.329,0.346,0.329c0.006,0,0.013,0,0.019,0c1.692-0.09,3.043-1.27,3.235-2.754h34.518l1.4,1.494    c0.068,0.073,0.161,0.11,0.253,0.11c0.085,0,0.17-0.031,0.237-0.094c0.14-0.131,0.147-0.35,0.016-0.49L89.641,50.008z"/></g></g></svg>