<svg xmlns="http://www.w3.org/2000/svg" xmlns:xlink="http://www.w3.org/1999/xlink" version="1.1" x="0px" y="0px" viewBox="0 0 100 125" enable-background="new 0 0 100 100" xml:space="preserve"><path d="M49.99,93.838c-24.123,0-43.75-19.625-43.75-43.75c0-24.123,19.627-43.749,43.75-43.749s43.748,19.626,43.748,43.749  C93.738,74.213,74.113,93.838,49.99,93.838z M49.99,9.345c-22.467,0-40.744,18.278-40.744,40.743  c0,22.467,18.277,40.744,40.744,40.744c22.465,0,40.742-18.277,40.742-40.744C90.732,27.623,72.455,9.345,49.99,9.345z"/><g><path d="M53.62,49.976c1.915,0,3.467-1.549,3.467-3.466v-4.941h4.942c1.913,0,3.471-1.553,3.471-3.471   c0-1.918-1.558-3.468-3.471-3.468h-4.942v-4.946c0-1.909-1.547-3.466-3.467-3.466s-3.471,1.553-3.471,3.466v4.946H45.2   c-1.907,0-3.458,1.549-3.458,3.473c0,1.913,1.542,3.47,3.458,3.47h4.949v4.937C50.149,48.425,51.7,49.976,53.62,49.976z"/><path d="M61.173,57.036c0.051,0.266,0.112,0.523,0.188,0.775c0.018,0.061,0.032,0.121,0.053,0.182   c0.098,0.303,0.214,0.6,0.348,0.887c0.023,0.051,0.053,0.1,0.078,0.15c0.116,0.238,0.246,0.469,0.385,0.691   c0.041,0.066,0.08,0.131,0.123,0.193c0.35,0.525,0.76,1.004,1.22,1.43c0.052,0.047,0.104,0.094,0.157,0.139   c0.199,0.174,0.407,0.338,0.624,0.492c0.044,0.031,0.089,0.066,0.135,0.098c0.262,0.178,0.535,0.342,0.818,0.488   c1.083,0.559,2.306,0.875,3.6,0.875c0.084,0,0.168-0.002,0.252-0.004c3.171-0.1,5.836-2.063,7.001-4.801   c0.102-0.238,0.189-0.482,0.269-0.73c0.005-0.018,0.013-0.035,0.018-0.053c0.072-0.236,0.132-0.479,0.182-0.725   c0.008-0.037,0.019-0.072,0.025-0.107c0.043-0.229,0.071-0.461,0.095-0.693c0.006-0.053,0.016-0.105,0.018-0.158   c0.022-0.277,0.031-0.561,0.022-0.848c0-0.002,0-0.006,0-0.008c-0.008-0.27-0.03-0.537-0.066-0.801   c-0.003-0.033-0.012-0.066-0.018-0.1c-0.032-0.229-0.072-0.453-0.125-0.674c-0.013-0.051-0.029-0.1-0.042-0.15   c-0.052-0.201-0.106-0.402-0.174-0.598c-0.018-0.049-0.04-0.098-0.061-0.148c-0.068-0.191-0.141-0.379-0.225-0.563   c-0.023-0.051-0.054-0.1-0.078-0.15c-0.086-0.176-0.173-0.354-0.272-0.523c-0.029-0.051-0.063-0.1-0.094-0.148   c-0.102-0.166-0.205-0.328-0.318-0.486c-0.034-0.049-0.072-0.094-0.108-0.141c-0.115-0.152-0.234-0.307-0.359-0.451   c-0.039-0.044-0.084-0.086-0.123-0.131c-0.13-0.141-0.26-0.28-0.399-0.41c-0.042-0.042-0.09-0.08-0.135-0.121   c-0.142-0.127-0.284-0.252-0.435-0.369c-0.049-0.038-0.1-0.073-0.149-0.11c-0.152-0.112-0.305-0.223-0.466-0.324   c-0.054-0.035-0.113-0.066-0.168-0.101c-0.158-0.095-0.319-0.188-0.483-0.273c-0.062-0.031-0.127-0.058-0.19-0.089   c-0.165-0.079-0.329-0.156-0.502-0.223c-0.068-0.027-0.139-0.049-0.208-0.074c-0.17-0.062-0.34-0.121-0.514-0.17   c-0.075-0.022-0.153-0.038-0.229-0.058c-0.172-0.043-0.344-0.085-0.521-0.117c-0.083-0.015-0.167-0.025-0.251-0.037   c-0.173-0.026-0.348-0.049-0.523-0.064c-0.09-0.006-0.181-0.009-0.27-0.012c-0.206-0.01-0.41-0.019-0.617-0.013   c-4.352,0.138-7.768,3.775-7.629,8.125c0.01,0.336,0.049,0.666,0.1,0.99C61.143,56.878,61.156,56.956,61.173,57.036z"/><path d="M80.151,58.655c-1.325,4.795-5.649,8.393-10.877,8.559c-0.123,0.004-0.246,0.006-0.371,0.006   c-2.116,0-4.092-0.564-5.799-1.537L52.656,80.243c0,0-0.025-0.01-0.046-0.023c-0.602,1.084-1.364,2.053-2.279,2.863   c-3.123,2.771-7.813,3.801-12.311,2.301c-6.509-2.166-10.158-8.803-8.154-14.826c0.086-0.26,0.192-0.506,0.298-0.754   c-0.005-0.002-0.021-0.01-0.021-0.01l6.417-24.833c-0.399-1.623-0.635-3.311-0.635-5.057c0-7.712,4.146-14.438,10.316-18.124   c-0.026-0.207-0.062-0.411-0.062-0.625c0-2.788,2.26-5.049,5.048-5.049H62.86c2.789,0,5.049,2.261,5.049,5.049   c0,0.215-0.037,0.418-0.063,0.625c0.31,0.185,0.61,0.382,0.907,0.583c1.894-0.722,3.947-1.135,6.096-1.187   c-6.677-5.747-15.359-9.229-24.861-9.229c-21.064,0-38.141,17.076-38.141,38.143c0,21.064,17.076,38.141,38.141,38.141   c18.119,0,33.276-12.638,37.165-29.575H80.151z"/></g></svg>