<svg version="1.1" xmlns="http://www.w3.org/2000/svg" viewBox="0 0 190 57.5" style="enable-background:new 0 0 190 57.5;" xml:space="preserve"> <style type="text/css"> .logo-light-1{fill:#FFFFFF;} .logo-light-2{fill:url(#logo-gradient1);} .logo-light-3{fill:url(#logo-gradient2);} .logo-light-4{opacity:0.3;fill:url(#logo-gradient3);enable-background:new;} </style> <g id="logo-text-mark"> <path id="letter-m" class="logo-light-1" d="M70.1,19.9c2.4-2.4,4.8-3.9,7.9-3.9c3.6,0,6,1.3,7.1,4.5c3.2-3.3,5.7-4.5,8.6-4.5c5.1,0,7.7,2.9,7.7,9.4v15.3 h-5.8V27c0-3.8-0.7-5.6-3.4-5.6c-1.9,0-4,1.2-6.3,3.7v15.6H80V27c0-3.8-0.8-5.6-3.5-5.6c-2.1,0-4.3,1.4-6.3,3.7v15.6h-5.8V16.5h5.8 V19.9z"></path> <path id="letter-o" class="logo-light-1" d="M128.4,28.8c0,7.6-4.8,12.5-12.4,12.5c-7.6,0-12.3-4.9-12.3-12.5c0-7.8,4.8-12.8,12.3-12.7 C123.6,16,128.4,20.9,128.4,28.8z M122.7,28.8c0-5.1-2.6-8-6.7-8c-4,0-6.6,2.9-6.6,8c0,4.9,2.6,7.7,6.6,7.7 C120.1,36.4,122.7,33.7,122.7,28.8L122.7,28.8z"></path> <path id="letter-l" class="logo-light-1" d="M130.6,40.8V7.6h5.8v33.2H130.6z"></path> <path id="letter-t" class="logo-light-1" d="M156.3,39.7c-1.9,0.8-4,1.2-6.1,1.3c-5.4,0-7.6-2.5-7.6-8.5V21.3H139v-4.9h3.6v-5.8h5.8v5.8h6.7v4.9h-6.7v11 c0,2.9,1,3.7,3.8,3.7c1.2,0,2.3-0.1,3.5-0.2L156.3,39.7z"></path> <path id="letter-i" class="logo-light-1" d="M162,6.3c1.8,0,3.4,1.1,3.4,3.1s-1.6,3.1-3.4,3.1s-3.4-1-3.4-3.1S160.2,6.3,162,6.3z M159.1,40.8V16.5h5.8 v24.3H159.1z"></path> <path id="letter-n" class="logo-light-1" d="M173.5,19.9c2.7-2.3,5.2-3.8,8.6-3.8c5.4,0,7.9,2.9,7.9,9.4v15.3h-5.8V27c0-3.9-0.6-5.6-3.8-5.6 c-2.6,0-4.9,1.4-6.9,3.8v15.5h-5.8V16.5h5.8V19.9z"></path> </g> <g id="logo-icon"> <path class="logo-light-1" d="M49.4,13.8L26,0.2c-0.5-0.3-1.2-0.3-1.7,0L0.8,13.8C0.3,14.1,0,14.6,0,15.2v27.1c0,0.6,0.3,1.2,0.8,1.5 l23.5,13.5c0.5,0.3,1.2,0.3,1.7,0l23.5-13.5c0.5-0.3,0.8-0.9,0.8-1.5V15.2C50.3,14.6,49.9,14.1,49.4,13.8z"></path> <linearGradient id="logo-gradient1" gradientUnits="userSpaceOnUse" x1="19.8879" y1="336.3934" x2="26.556" y2="309.9681" gradientTransform="matrix(1 0 0 -1 0 350.1537)"> <stop offset="1.189000e-02" style="stop-color:#F28830"></stop> <stop offset="1" style="stop-color:#E62F17"></stop> </linearGradient> <path class="logo-light-2" d="M4.1,42c-0.6-0.3-1-1-1-1.7V26.6c0-1.6,0.2-3.2,0.7-4.7c0.8-2.2,2.4-4.3,5.5-5.5c6-2.4,11.9,0.8,15.3,5.6 c2.8,4,4.5,5.6,8,8.3c3.1,2.4,13,6.7,14.5-1.9v11.9c0,0.7-0.4,1.3-1,1.7L26.1,53.6c-0.6,0.3-1.3,0.3-1.9,0L4.1,42z"></path> <linearGradient id="logo-gradient2" gradientUnits="userSpaceOnUse" x1="25.1326" y1="328.6759" x2="25.1326" y2="297.1906" gradientTransform="matrix(1 0 0 -1 0 350.1537)"> <stop offset="0" style="stop-color:#F2BB30"></stop> <stop offset="0.3095" style="stop-color:#F28830"></stop> <stop offset="1" style="stop-color:#E62F17"></stop> </linearGradient> <path class="logo-light-3" d="M4.1,42l20.1,11.6c0.6,0.3,1.3,0.3,1.9,0L46.2,42c0.6-0.3,1-1,1-1.7V28.5c0-8.8-9.8-9.5-14.8-2.5 c-4,5.5-5.8,7.5-11.1,9.5c-6.3,2.3-11.9,1-15.1-2.1c-1.8-1.8-2.9-4.2-2.9-6.7v13.8C3.1,41,3.5,41.7,4.1,42z"></path> <linearGradient id="logo-gradient3" gradientUnits="userSpaceOnUse" x1="37.2751" y1="314.8101" x2="39.6306" y2="325.7461" gradientTransform="matrix(1 0 0 -1 0 350.1537)"> <stop offset="0" style="stop-color:#FFFFFF"></stop> <stop offset="1" style="stop-color:#FFFFFF;stop-opacity:0"></stop> </linearGradient> <path class="logo-light-4" d="M47.1,28.5c0-8.8-9.8-9.5-14.8-2.5c-0.7,1-1.3,1.8-1.9,2.6c0.7,0.6,1.4,1.2,2.3,1.8 C35.8,32.8,45.6,37.1,47.1,28.5z"></path> </g> </svg>
