<svg xmlns="http://www.w3.org/2000/svg" xmlns:xlink="http://www.w3.org/1999/xlink" version="1.1" x="0px" y="0px" viewBox="0 0 64 80" enable-background="new 0 0 64 64" xml:space="preserve"><g><path d="M32,7C18.215,7,7,18.215,7,32s11.215,25,25,25s25-11.215,25-25S45.785,7,32,7z M42.895,20.447l-12,24   c-0.144,0.287-0.417,0.488-0.734,0.54C30.106,44.996,30.053,45,30,45c-0.263,0-0.518-0.104-0.707-0.293l-8-8   c-0.391-0.391-0.391-1.023,0-1.414s1.023-0.391,1.414,0l7.019,7.019l11.38-22.759c0.248-0.494,0.848-0.694,1.342-0.447   C42.941,19.353,43.142,19.953,42.895,20.447z"/></g></svg>