<?xml version="1.0" encoding="UTF-8"?>
<svg version="1.0" xmlns="http://www.w3.org/2000/svg" width="680" height="129" >
<path fill="#231F20" d="M22.215,22.976C13.27,33.834,3.952,48.228,3.382,62.649C2.15,93.77,53.125,83.072,69.996,79.583 c35.291-7.301,69.72-18.758,104.112-29.368c16.741-5.165,33.494-10.314,50.402-14.906c12.642-3.434,25.542-6.863,38.611-8.178 c4.151-0.417,13.519-1.805,16.229,2.668c3.058,5.046-5.572,14.354-8.267,17.617c-6.102,7.39-12.848,15.414-21.107,20.433 c-1.202,0.73-2.444,1.459-3.745,2.002c-0.466,0.195-0.946,0.345-1.439,0.454c-0.088,0.02,0.549,1.303,0.746,0.526 c0.556-2.195,2.397-4.316,3.685-6.105c3.611-5.015,7.733-9.682,11.798-14.327c1.479-1.691-0.986-4.177-2.475-2.475 c-5.457,6.236-13.034,13.35-16.13,21.276c-1.121,2.868,0.468,5.111,3.567,4.422c7.895-1.755,14.67-9.813,19.832-15.15 c7.144-7.387,30.209-32.566,6.953-35.016c-10.242-1.079-21.203,1.685-31.106,3.925c-15.634,3.539-31.039,8.101-46.384,12.71 c-35.385,10.627-70.483,22.333-106.298,31.47c-17.357,4.428-35.245,8.646-53.227,8.955C25.068,80.699,9.374,79.159,7.071,66.241 c-1.614-9.055,3.59-19.023,7.938-26.588c2.841-4.943,6.053-9.783,9.675-14.195c0.002-0.002,0.003-0.004,0.005-0.007 C26.112,23.724,23.651,21.232,22.215,22.976L22.215,22.976 M321.458,64.28c1.03,0.756,2.061,1.512,3.091,2.268c0.771,0.565,1.95,0.131,2.394-0.628 c0.521-0.888,0.14-1.832-0.627-2.395c-1.03-0.756-2.061-1.512-3.091-2.268c-0.771-0.565-1.95-0.131-2.395,0.628 C320.311,62.773,320.691,63.717,321.458,64.28L321.458,64.28 M385.211,34.316c-3.684,4.461-28.162,33.17-17.748,37.17c4.042,1.553,9.478-1.691,12.917-3.423 c11.238-5.659,22.416-11.457,33.509-17.394c19.455-10.413,39.389-21.454,55.66-36.559c-0.975-0.257-1.95-0.515-2.925-0.772 c-0.124-0.871-0.081,1.837-0.137,2.368c-0.299,2.848-1.206,5.662-2.146,8.35c-4.925,14.065-14.331,26.72-23.522,38.232 c0.825,0.825,1.649,1.65,2.475,2.475c7.854-10.151,16.525-19.756,25.598-28.824c7.154-7.152,14.75-13.967,23.144-19.641 c6.415-4.336,14.848-9.271,22.926-7.784c2.206,0.406,3.147-2.967,0.93-3.375c-7.622-1.403-15.037,1.834-21.519,5.563 c-9.164,5.271-17.271,12.469-24.874,19.747c-10.288,9.848-19.959,20.571-28.679,31.84c-1.355,1.752,1.059,4.249,2.475,2.475 c9.528-11.934,18.727-24.669,24.162-39.062c1.511-4,3.167-8.923,2.544-13.293c-0.197-1.386-2.066-1.569-2.925-0.772 c-13.896,12.9-30.6,22.584-47.098,31.736c-9.449,5.242-19.048,10.214-28.657,15.156c-6.593,3.391-13.593,8.243-20.967,9.727 c-3.378,0.679-1.484-3.227-0.718-4.985c1.734-3.983,4.198-7.676,6.624-11.261c3.551-5.248,7.393-10.331,11.427-15.218 C389.11,35.064,386.649,32.574,385.211,34.316L385.211,34.316 M503.731,30.264c-9.134,4.495-20.306,10.304-26.289,18.804c-1.459,2.071-4.228,7.323-0.823,9.141 c2.996,1.601,6.953-0.378,9.737-1.571c10.798-4.627,20.804-11.641,30.431-18.297c2.286-1.581,4.564-3.091,6.521-5.068 c0.943-0.954,1.885-1.909,2.828-2.862c0.716-0.724,1.653-1.038,0.333-0.634c-0.659-0.857-1.317-1.714-1.977-2.571 c0.277-0.655-0.474,0.534-0.756,0.859c-0.899,1.035-1.793,2.075-2.677,3.123c-2.51,2.973-4.935,6.019-7.232,9.159 c-2.971,4.061-9.721,12.289-6.731,17.752c4.229,7.73,23.172-3.179,27.581-5.296c11.355-5.455,22.493-11.627,33.085-18.45 c4.922-3.171,10.479-6.661,13.976-11.482c5.579-7.693-7.5-6.493-11.12-5.556c-10.173,2.633-20.762,8.17-27.826,16.048 c-5.108,5.697-16.721,23.115-4.426,27.817c6.46,2.47,14.979-1.672,20.669-4.323c9.466-4.411,18.784-10.325,26.795-17.059 c1.427-1.199,4.942-4.123,2.899-6.245c-1.613-1.676-4.692-0.268-6.422,0.443c-7.376,3.033-15.451,8.365-19.388,15.491 c-5.649,10.226,6.374,18.14,15.606,17.998c14.275-0.219,28.278-13.924,35.723-24.997c1.127-1.675-1.377-3.519-2.748-2.121 c-5.041,5.142-10.456,10.834-13.715,17.309c-1.203,2.39-2.116,6.355,1.295,7.412c5.272,1.635,12.505-2.741,17.007-4.869 c11.762-5.56,23.173-12.126,34.416-18.662c6.029-3.505,12.062-7.141,17.471-11.566c2.942-2.408,5.438-5.237,7.401-8.494 c1.598-2.65,4.221-6.311,4.69-9.378c0.653-4.27-4.188-2.459-6.09-1.233c-5.211,3.359-9.787,7.922-14.099,12.33 c-5.613,5.739-19.496,18.58-13.794,27.644c1.475,2.345,3.635,4.177,4.947,6.63c1.917,3.582,0.157,8.113-1.348,11.488 c-4.31,9.664-11.215,18.341-17.653,26.635c-7.094,9.139-14.617,19.332-24.265,25.982c-11.333,7.812-11.237-7.855-20.05-10.617 c-2.159-0.677-3.076,2.702-0.93,3.375c6.434,2.017,6.36,12.129,13.893,13.119c5.094,0.67,9.855-3.35,13.428-6.418 c9.563-8.217,17.317-18.777,24.861-28.796c5.43-7.211,11.103-14.847,14.503-23.284c1.475-3.658,2.562-7.735,1.286-11.614 c-0.896-2.723-2.95-4.778-4.711-6.955c-3.063-3.787-1.396-7.014,0.971-10.875c3.883-6.336,9.225-11.875,14.532-17.023 c3.291-3.192,7.822-8.464,12.411-9.777c-2.049,0.586-0.919-2.346-1.483-0.728c-0.144,0.412-0.41,0.812-0.616,1.194 c-0.448,0.834-0.884,1.675-1.321,2.516c-0.825,1.589-1.657,3.173-2.599,4.696c-2.178,3.521-5.269,6.299-8.555,8.764 c-6.713,5.036-14.158,9.143-21.453,13.252c-11.191,6.304-22.507,13.147-34.52,17.779c-2.828,1.09-8.96,3.917-6.402-1.165 c2.075-4.123,5.299-7.736,8.325-11.178c1.503-1.71,3.045-3.393,4.64-5.02c-0.916-0.707-1.832-1.414-2.748-2.121 c-5.258,7.82-12.663,14.619-20.783,19.35c-7.134,4.157-21.331,7.014-25.216-3.314c-3.251-8.643,13.091-17.586,19.268-19.878 c0.663-0.247,1.343-0.442,2.037-0.577c0.648-0.126-0.386-1.977-0.867-1.237c-1.46,2.244-4.435,3.998-6.529,5.521 c-9.44,6.866-19.992,13.697-31.341,16.845c-5.39,1.495-12.313,1.318-11.121-5.965c1.093-6.676,6.054-13.369,10.826-17.928 c7.248-6.925,18.371-12.553,28.4-13.726c1.044-0.122,2.527-0.327,3.501,0.163c0.239,0.12,0.016-0.374-0.039-0.102 c-0.142,0.701-0.713,1.348-1.155,1.878c-4.864,5.823-12.441,9.85-18.827,13.689c-10.535,6.336-21.46,12.276-32.723,17.225 c-4.262,1.873-10.693,5.189-15.567,4.188c-4.452-0.914,4.95-13.632,6.059-15.147c2.172-2.967,4.501-5.818,6.877-8.623 c1.007-1.188,2.869-2.642,3.489-4.109c0.551-1.304-0.347-3.07-1.977-2.571c-2.828,0.866-5.133,5.091-7.378,6.707 c-7.673,5.523-15.642,10.703-23.818,15.444c-3.972,2.302-8.068,4.592-12.422,6.089c-0.648,0.223-2.939,1.007-3.389,0.657 c-0.902-0.704,2.214-4.824,2.756-5.468c6.127-7.273,15.768-12.391,24.209-16.545C507.522,32.29,505.748,29.271,503.731,30.264 L503.731,30.264z"/>
</svg>