<?xml version="1.0" encoding="UTF-8" standalone="no"?>
<svg
   xmlns:dc="http://purl.org/dc/elements/1.1/"
   xmlns:cc="http://creativecommons.org/ns#"
   xmlns:rdf="http://www.w3.org/1999/02/22-rdf-syntax-ns#"
   xmlns:svg="http://www.w3.org/2000/svg"
   xmlns="http://www.w3.org/2000/svg"
   version="1.1"
   viewBox="0 0 981.17645 492.92441"
   height="492.92441"
   width="981.17645"
   data-name="Layer 1"
   id="e07c9319-842b-449a-9f57-029d5804b779">
  <metadata
     id="metadata158">
    <rdf:RDF>
      <cc:Work
         rdf:about="">
        <dc:format>image/svg+xml</dc:format>
        <dc:type
           rdf:resource="http://purl.org/dc/dcmitype/StillImage" />
        <dc:title>portfolio_website</dc:title>
      </cc:Work>
    </rdf:RDF>
  </metadata>
  <defs
     id="defs156" />
  <title
     id="title99">portfolio_website</title>
  <rect
     style="fill:#3f3d56"
     id="rect105"
     height="492.92438"
     width="981.17645"
     y="0"
     x="0" />
  <rect
     style="opacity:0.1"
     id="rect107"
     height="252.30252"
     width="367.94119"
     y="142.50421"
     x="275.66388" />
  <circle
     style="fill:#6c63ff"
     id="circle111"
     r="11.68067"
     cy="18.689072"
     cx="29.201683" />
  <circle
     style="fill:#6c63ff"
     id="circle113"
     r="11.68067"
     cy="18.689072"
     cx="65.411758" />
  <circle
     style="fill:#6c63ff"
     id="circle115"
     r="11.68067"
     cy="18.689072"
     cx="101.62186" />
  <rect
     style="fill:#6c63ff"
     id="rect117"
     height="23.36134"
     width="23.36134"
     y="183.38654"
     x="113.30252" />
  <rect
     style="fill:#ffffff"
     id="rect119"
     height="23.36134"
     width="23.36134"
     y="386.63025"
     x="824.65546" />
  <rect
     style="fill:#6c63ff"
     id="rect121"
     transform="rotate(-38.97687)"
     height="23.36134"
     width="23.36134"
     y="655.8869"
     x="430.83487" />
  <path
     style="fill:#f2f2f2"
     id="path129"
     d="m 170.53781,463.72273 -10.43083,29.20168 h -23.44312 v -29.78575 c 1.72872,-37.36646 22.69554,-54.93424 23.34966,-55.47151 -15.75722,15.1965 -14.00512,67.73621 -14.00512,67.73621 10.51261,-45.55462 19.85714,-46.72269 19.85714,-46.72269 -5.65347,8.4918 -8.57364,47.11979 -8.74881,49.526 0.70081,-8.118 13.42108,-14.48394 13.42108,-14.48394 z" />
  <path
     style="fill:#f2f2f2"
     id="path131"
     d="m 895.90756,467.69407 v 25.2303 H 877.8843 l -8.84228,-24.77473 c 0,0 10.08042,5.04609 10.64107,11.48209 -0.14016,-1.98573 -2.45291,-32.54234 -6.93832,-39.27042 0,0 7.41727,0.92275 15.75721,37.05106 0,0 1.37838,-41.66494 -11.10826,-53.7194 0.52558,0.43221 17.14722,14.35555 18.51384,44.0011 z" />
  <path
     style="fill:#d0cde1"
     id="path133"
     d="m 580.4713,394.80173 h -28.41 l -0.19,-2.33 -2.07,-25.97 v -0.01 l -2.15,-27 13.11,-55.69 11.14,11.14 v 53.07 c 0,0 6.55,9.83 5.24,12.45 -1.31,2.62 -2.62,2.62 -1.31,4.58 1.31,1.97 2.62,3.28 1.31,4.59 a 4.92,4.92 0 0 0 0,5.9 c 1.31,1.31 3.93,3.27 1.96,5.24 -1.96,1.96 -4.58,0.65 -1.96,7.86 a 23.00135,23.00135 0 0 0 1.8,3.84 25.502,25.502 0 0 0 1.53,2.33 z" />
  <polygon
     transform="translate(-64.243698,-128.51654)"
     style="fill:#ffb9b9"
     id="polygon135"
     points="593.225,389.056 596.173,366.452 599.122,343.847 557.189,343.847 553.258,383.159 " />
  <polygon
     transform="translate(-64.243698,-128.51654)"
     style="opacity:0.1"
     id="polygon137"
     points="593.225,389.056 596.173,366.452 599.122,343.847 557.189,343.847 553.258,383.159 " />
  <circle
     style="fill:#ffb9b9"
     id="circle139"
     r="31.44965"
     cy="196.65741"
     cx="514.89435" />
  <path
     style="fill:#d0cde1"
     id="path141"
     d="m 435.4213,394.80173 c -0.11,-0.23 -0.23,-0.47 -0.35,-0.73 -0.23,-0.49 -0.48,-1.02 -0.75,-1.6 -1.74,-3.88 -3.87,-9.4 -2.64,-11.05 1.97,-2.62 2.62,-5.24 1.31,-6.55 -1.31,-1.31 -5.24,1.31 -1.31,-1.97 3.93,-3.27 5.24,-1.31 3.93,-5.24 -1.31,-3.93 -3.93,-1.96 -1.31,-3.93 2.62,-1.96 4.59,-1.31 3.28,-3.27 -1.31,-1.97 -3.93,-1.97 -1.31,-3.28 2.62,-1.31 4.59,0 3.93,-3.28 -0.66,-3.27 -1.31,-1.96 0,-3.27 0.34,-0.34 1.53,-3.64 3.12,-8.35 4.45,-13.31 11.95,-37.86 11.95,-38.83 0,-1.31 -10.48,-42.58 -10.48,-42.58 l -4.59,-2.63 c 0,0 -20.31,13.76 -26.86,44.56 -6.56,30.79 -11.14,38.66 -11.14,38.66 0,0 -6.55,1.31 -1.97,5.89 4.59,4.59 4.59,3.93 0.66,6.55 -3.93,2.62 -6.55,-2.62 -3.93,2.62 2.62,5.25 5.89,3.94 3.27,7.21 -2.62,3.28 -7.2,3.28 -4.58,5.9 2.62,2.62 -2.62,8.52 0.65,11.14 3.28,2.62 4.59,3.27 4.59,7.86 a 24.2678,24.2678 0 0 0 0.31,3.84 19.59679,19.59679 0 0 0 0.48,2.33 c 0.15,0.61 0.3,1.07 0.4,1.36 z" />
  <polygon
     transform="translate(-64.243698,-128.51654)"
     style="fill:#3f3d56"
     id="polygon143"
     points="502.475,522.388 499.315,522.588 487.825,523.318 466.325,524.678 499.665,523.318 502.335,523.318 " />
  <path
     style="fill:#d0cde1"
     id="path145"
     d="m 449.3713,367.01173 -5.89,-20.31 -0.16,-4.42 -3.12,-84.04 38.66,-13.75 6.55,-5.25 c 0,0 1.31,-15.07 3.28,-16.38 0.71,-0.47 1.85,0.08 3.36,1.36 2.65,2.25 6.45,6.74 11.05,11.75 7.21,7.86 22.28,6.55 26.86005,3.93 a 15.46778,15.46778 0 0 1 1.83,-0.91 c 3.29,-1.36 4.72,-0.4 4.72,-0.4 3.28,2.62 -4.58,11.14 -4.58,11.14 0,0 2.62,5.89 19.65,11.79 17.04,5.9 20.32,33.42 20.32,33.42 0,0 -20.32,55.03 -19.66,58.96 0.56,3.37 -1.76,10.59 -2.44,12.59 v 0.01 c -0.11,0.32 -0.18,0.51 -0.18,0.51 l 1.49,25.46 0.14,2.33 H 452.1413 a 13.47767,13.47767 0 0 0 -1.11,-2.33 c -0.11,-0.18 -0.23,-0.37 -0.35,-0.56 -5.89,-9.18 -1.31,-24.9 -1.31,-24.9 z" />
  <path
     style="fill:#2f2e41"
     id="path147"
     d="m 483.22662,200.68614 c 0,0 -3.26589,-4.89882 -2.00978,-10.17448 a 30.83664,30.83664 0 0 0 0.87928,-9.16959 c 0,0 2.63783,-8.54154 5.27565,-13.31475 2.63782,-4.77321 1.38172,-6.783 9.672,-8.29032 8.29028,-1.50732 4.89882,-12.30986 26.75511,-0.62805 a 6.40974,6.40974 0 0 0 6.65737,2.51222 c 4.522,-0.87928 6.15494,5.40126 6.15494,5.40126 0,0 3.01466,-1.75855 4.14515,0.75367 1.13049,2.51222 9.19122,-1.50778 9.19122,15.44968 0,16.95746 -9.17281,32.10485 -9.17281,32.10485 0,0 0.67245,-28.52449 -14.27524,-31.41354 -14.94769,-2.88905 -31.02588,-11.305 -34.91981,-0.50244 a 82.35048,82.35048 0 0 1 -8.35308,17.27149 z" />
  <ellipse
     style="fill:#ffb9b9"
     id="ellipse149"
     ry="3.93121"
     rx="2.9484"
     cy="203.53702"
     cx="541.10236" />
  <path
     style="fill:#ffffff"
     id="path151"
     d="m 275.6613,123.81173 v 270.99 h 429.85 v -270.99 z m 427.52,268.66 h -425.18 v -266.32 h 425.18 z" />
</svg>
