<?xml version="1.0" encoding="UTF-8" standalone="no"?>
<svg
   xmlns:dc="http://purl.org/dc/elements/1.1/"
   xmlns:cc="http://creativecommons.org/ns#"
   xmlns:rdf="http://www.w3.org/1999/02/22-rdf-syntax-ns#"
   xmlns:svg="http://www.w3.org/2000/svg"
   xmlns="http://www.w3.org/2000/svg"
   xmlns:sodipodi="http://sodipodi.sourceforge.net/DTD/sodipodi-0.dtd"
   xmlns:inkscape="http://www.inkscape.org/namespaces/inkscape"
   id="a761666e-317c-445e-96b4-8ff633270475"
   data-name="Layer 1"
   width="1021.7592"
   height="574.17102"
   viewBox="0 0 1021.7592 574.171"
   version="1.1"
   sodipodi:docname="landing.svg"
   inkscape:version="0.92.0 r15299">
  <metadata
     id="metadata3805">
    <rdf:RDF>
      <cc:Work
         rdf:about="">
        <dc:format>image/svg+xml</dc:format>
        <dc:type
           rdf:resource="http://purl.org/dc/dcmitype/StillImage" />
      </cc:Work>
    </rdf:RDF>
  </metadata>
  <defs
     id="defs3803" />
  <sodipodi:namedview
     pagecolor="#ffffff"
     bordercolor="#666666"
     borderopacity="1"
     objecttolerance="10"
     gridtolerance="10"
     guidetolerance="10"
     inkscape:pageopacity="0"
     inkscape:pageshadow="2"
     inkscape:window-width="1280"
     inkscape:window-height="961"
     id="namedview3801"
     showgrid="false"
     inkscape:zoom="0.99698178"
     inkscape:cx="-93.037952"
     inkscape:cy="12.492425"
     inkscape:window-x="-8"
     inkscape:window-y="-8"
     inkscape:window-maximized="1"
     inkscape:current-layer="a761666e-317c-445e-96b4-8ff633270475" />
  <title
     id="title3680">
		landing page
	</title>
  <ellipse
     cx="496.75922"
     cy="532.5"
     rx="152"
     ry="10"
     id="ellipse3682"
     style="fill:#f2f2f2" />
  <ellipse
     cx="239.75922"
     cy="569.5"
     rx="71"
     ry="4.6710501"
     id="ellipse3684"
     style="fill:#f2f2f2" />
  <ellipse
     cx="798.75922"
     cy="509.5"
     rx="152"
     ry="10"
     id="ellipse3686"
     style="fill:#f2f2f2" />
  <line
     x1="6.7592182"
     y1="493.5"
     x2="1021.7592"
     y2="493.5"
     stroke-miterlimit="10"
     id="line3688"
     style="fill:none;stroke:#2f2e41;stroke-width:2;stroke-miterlimit:10" />
  <rect
     x="183.25922"
     y="0"
     width="730"
     height="493"
     id="rect3690"
     style="fill:#3f3d56" />
  <line
     x1="183.25922"
     y1="36.059052"
     x2="913.25922"
     y2="36.059052"
     stroke-miterlimit="10"
     id="line3692"
     style="fill:none;stroke:#2f2e41;stroke-width:2;stroke-miterlimit:10" />
  <circle
     cx="205.75922"
     cy="18"
     r="9"
     id="circle3694"
     style="fill:#8072b3" />
  <circle
     cx="232.75922"
     cy="18.5"
     r="9"
     id="circle3696"
     style="fill:#8072b3" />
  <circle
     cx="259.75922"
     cy="19"
     r="9"
     id="circle3698"
     style="fill:#8072b3" />
  <rect
     x="228.75922"
     y="69.5"
     width="616"
     height="120"
     id="rect3700"
     style="opacity:0.3;fill:#8072b3" />
  <line
     x1="228.75922"
     y1="189.5"
     x2="844.75922"
     y2="69.5"
     stroke-miterlimit="10"
     id="line3702"
     style="opacity:0.3;fill:none;stroke:#8072b3;stroke-width:2;stroke-miterlimit:10" />
  <line
     x1="844.75922"
     y1="189.5"
     x2="228.75922"
     y2="69.5"
     stroke-miterlimit="10"
     id="line3704"
     style="opacity:0.3;fill:none;stroke:#8072b3;stroke-width:2;stroke-miterlimit:10" />
  <rect
     x="228.75922"
     y="265.5"
     width="147"
     height="193"
     id="rect3706"
     style="opacity:0.3;fill:#8072b3" />
  <rect
     x="697.75922"
     y="265.5"
     width="147"
     height="193"
     id="rect3708"
     style="opacity:0.3;fill:#8072b3" />
  <rect
     x="463.25922"
     y="265.5"
     width="147"
     height="193"
     id="rect3710"
     style="opacity:0.3;fill:#8072b3" />
  <line
     x1="228.75922"
     y1="265.5"
     x2="375.75922"
     y2="458.5"
     stroke-miterlimit="10"
     id="line3712"
     style="opacity:0.3;fill:none;stroke:#8072b3;stroke-width:2;stroke-miterlimit:10" />
  <line
     x1="375.75922"
     y1="265.5"
     x2="228.75922"
     y2="458.5"
     stroke-miterlimit="10"
     id="line3714"
     style="opacity:0.3;fill:none;stroke:#8072b3;stroke-width:2;stroke-miterlimit:10" />
  <line
     x1="463.75922"
     y1="265.5"
     x2="610.75922"
     y2="458.5"
     stroke-miterlimit="10"
     id="line3716"
     style="opacity:0.3;fill:none;stroke:#8072b3;stroke-width:2;stroke-miterlimit:10" />
  <line
     x1="610.75922"
     y1="265.5"
     x2="463.75922"
     y2="458.5"
     stroke-miterlimit="10"
     id="line3718"
     style="opacity:0.3;fill:none;stroke:#8072b3;stroke-width:2;stroke-miterlimit:10" />
  <line
     x1="697.75922"
     y1="265.5"
     x2="844.75922"
     y2="458.5"
     stroke-miterlimit="10"
     id="line3720"
     style="opacity:0.3;fill:none;stroke:#8072b3;stroke-width:2;stroke-miterlimit:10" />
  <line
     x1="844.75922"
     y1="265.5"
     x2="697.75922"
     y2="458.5"
     stroke-miterlimit="10"
     id="line3722"
     style="opacity:0.3;fill:none;stroke:#8072b3;stroke-width:2;stroke-miterlimit:10" />
  <rect
     x="310.75922"
     y="69.5"
     width="616"
     height="120"
     id="rect3724"
     style="fill:#8072b3" />
  <rect
     x="725.75922"
     y="311.5"
     width="147"
     height="193"
     id="rect3726"
     style="fill:#8072b3" />
  <rect
     x="747.25922"
     y="337"
     width="104"
     height="12"
     id="rect3728"
     style="fill:#3f3d56" />
  <rect
     x="747.25922"
     y="363"
     width="104"
     height="12"
     id="rect3730"
     style="fill:#3f3d56" />
  <rect
     x="747.25922"
     y="389"
     width="104"
     height="12"
     id="rect3732"
     style="fill:#3f3d56" />
  <rect
     x="747.25922"
     y="415"
     width="104"
     height="12"
     id="rect3734"
     style="fill:#3f3d56" />
  <rect
     x="747.25922"
     y="441"
     width="104"
     height="12"
     id="rect3736"
     style="fill:#3f3d56" />
  <rect
     x="747.25922"
     y="467"
     width="104"
     height="12"
     id="rect3738"
     style="fill:#3f3d56" />
  <rect
     x="264.75922"
     y="291.5"
     width="147"
     height="193"
     id="rect3740"
     style="fill:#8072b3" />
  <rect
     x="286.25922"
     y="356"
     width="104"
     height="12"
     id="rect3742"
     style="fill:#3f3d56" />
  <rect
     x="286.25922"
     y="382"
     width="104"
     height="12"
     id="rect3744"
     style="fill:#3f3d56" />
  <rect
     x="286.25922"
     y="408"
     width="104"
     height="12"
     id="rect3746"
     style="fill:#3f3d56" />
  <path
     d="m 648.59309,139.86906 c 0,22.46856 -13.35644,30.31375 -29.83387,30.31375 q -0.57257,0 -1.14332,-0.0127 c -0.76344,-0.0164 -1.51961,-0.0527 -2.26668,-0.10361 -14.87057,-1.05244 -26.42387,-9.30115 -26.42387,-30.19741 0,-21.62514 27.63446,-48.912424 29.71026,-50.931894 l 0.004,-0.004 c 0.08,-0.0782 0.12,-0.11634 0.12,-0.11634 0,0 29.83384,28.583304 29.83384,51.051864 z"
     id="path3748"
     inkscape:connector-curvature="0"
     style="fill:#3f3d56" />
  <path
     d="m 617.67224,166.74553 10.91162,-15.24683 -10.93889,16.92094 -0.0291,1.75044 c -0.76344,-0.0164 -1.51961,-0.0527 -2.26668,-0.10361 l 1.17607,-22.47946 -0.009,-0.17451 0.02,-0.0327 0.11088,-2.12307 -10.96619,-16.96276 11.0007,15.37045 0.0255,0.45079 0.88883,-16.98456 -9.38839,-17.52807 9.50291,14.547 0.9252,-35.212444 0.004,-0.12 v 0.11634 l -0.1545,27.767154 9.34661,-11.008 -9.38478,13.40016 -0.2472,15.20685 8.72677,-14.59429 -8.76312,16.83189 -0.13814,8.4541 12.66934,-20.31277 -12.71665,23.2629 z"
     id="path3750"
     inkscape:connector-curvature="0"
     style="fill:#8072b3" />
  <circle
     cx="82.231056"
     cy="163.14569"
     r="23.432699"
     id="circle3752"
     style="fill:#2f2e41" />
  <path
     d="m 69.893578,178.74584 c 0,0 0.35279,14.46431 -1.05837,14.8171 -1.41116,0.35279 19.40335,5.9974 19.40335,5.9974 l 2.11673,-19.75614 z"
     id="path3754"
     inkscape:connector-curvature="0"
     style="fill:#a0616a" />
  <path
     d="m 234.29291,302.22174 c 0,0 15.52268,0 15.87547,-1.76394 0.35279,-1.76394 3.52788,14.46431 3.52788,14.46431 l -6.35019,2.11673 c 0,0 -11.9948,-5.29182 -13.05316,-5.29182 -1.05836,0 0,-9.52528 0,-9.52528 z"
     id="path3756"
     inkscape:connector-curvature="0"
     style="fill:#a0616a" />
  <path
     d="m 251.22674,308.57193 c 0,0 -2.8223,-9.52529 -6.35018,-9.87807 0,0 11.99479,-7.76135 12.34758,-10.23086 0.35279,-2.46951 4.58625,-8.81971 6.35019,-6.703 1.76394,2.11671 1.76394,35.63161 -1.41115,39.15949 -3.17509,3.52788 -17.2866,-4.95865 -17.2866,-4.95865 0,0 8.81968,-3.861 6.35016,-7.38891 z"
     id="path3758"
     inkscape:connector-curvature="0"
     style="fill:#2f2e41" />
  <polygon
     points="69.894,637.07 69.894,619.783 59.663,619.783 56.841,634.953 "
     id="polygon3760"
     style="fill:#a0616a"
     transform="translate(-6.1829025e-5,-176.09338)" />
  <path
     d="m 59.662748,457.09576 c 0,0 -2.11673,-6.703 -3.52788,-5.64461 -1.41115,1.05839 -3.52788,7.76134 -3.1751,9.52528 0.35278,1.76394 2.82231,15.52268 1.76394,17.9922 -1.05837,2.46952 5.29183,15.16989 13.406,14.11152 8.11417,-1.05837 7.40855,-8.11412 7.40855,-8.11412 l -2.82231,-10.93644 -1.05837,-17.28662 c 0,0 -9.17253,-1.41113 -11.99483,0.35279 z"
     id="path3762"
     inkscape:connector-curvature="0"
     style="fill:#2f2e41" />
  <circle
     cx="74.033966"
     cy="138.48297"
     r="9.69629"
     id="circle3764"
     style="fill:#2f2e41" />
  <path
     d="m 61.105578,133.23084 a 9.69729,9.69729 0 0 1 8.68626,-9.64386 9.80238,9.80238 0 0 0 -1.01,-0.0524 9.69629,9.69629 0 0 0 0,19.39258 9.8052,9.8052 0 0 0 1.01,-0.0524 9.69729,9.69729 0 0 1 -8.68626,-9.64387 z"
     id="path3766"
     inkscape:connector-curvature="0"
     style="fill:#2f2e41" />
  <circle
     cx="82.241196"
     cy="173.80682"
     r="14.8171"
     id="circle3768"
     style="fill:#a0616a" />
  <path
     d="m 52.959768,276.82099 c 0,0 0.70558,17.63941 3.52789,26.8119 2.82231,9.17249 12.99739,74.49668 10.88067,79.43571 -2.11672,4.93903 -12.9974,59.56284 -10.52789,62.73794 2.46951,3.1751 14.11153,2.11672 14.11153,2.11672 l 15.81971,-66.26581 c 0,0 -3.11933,-73.08552 22.987002,-74.84947 26.10633,-1.76395 68.7937,-2.8223 68.7937,-2.8223 0,0 27.51748,8.11413 39.86507,7.76134 12.34759,-0.35279 19.40335,3.17509 19.40335,3.17509 l 2.11673,-14.46431 -54.68217,-11.9948 c 0,0 -50.09593,-17.28662 -77.61341,-12.70038 -27.517482,4.58624 -54.682182,1.05837 -54.682182,1.05837 z"
     id="path3770"
     inkscape:connector-curvature="0"
     style="fill:#2f2e41" />
  <path
     d="m 72.715908,188.97672 c 0,0 -4.23346,-2.46951 -5.29182,0 -1.05836,2.46951 -8.46692,4.58625 -11.28922,2.46952 -2.8223,-2.11673 -9.87807,0.70558 -9.87807,0.70558 l -7.76134,22.93123 c 0,0 3.88067,19.75614 7.40855,30.69258 3.52788,10.93644 4.939,33.51487 3.52788,35.6316 -1.41112,2.11673 28.22306,10.58365 42.68737,5.29183 14.464312,-5.29182 17.639412,-11.28922 17.639412,-11.28922 0,0 -15.875472,-22.57844 -10.583642,-33.16209 5.291832,-10.58365 1.058362,-22.57844 1.058362,-22.57844 l 2.11673,-11.9948 -11.994802,-6.703 c 0,0 -0.70557,-6.35018 -3.52788,-6.35018 -2.82231,0 -14.11153,-5.64461 -14.11153,-5.64461 z"
     id="path3772"
     inkscape:connector-curvature="0"
     style="fill:#d0cde1" />
  <path
     d="m 97.058298,208.02729 h 5.291822 a 11.8432,11.8432 0 0 1 3.52788,10.93643 c -1.41115,6.703 -7.775352,28.92537 -7.775352,28.92537 l -5.27781,-13.75548 z"
     id="path3774"
     inkscape:connector-curvature="0"
     style="fill:#d0cde1" />
  <path
     d="m 112.25426,264.68313 c 0,0 10.55758,11.43228 2.79624,17.42968 -7.76134,5.9974 -9.67384,-13.75874 -9.67384,-13.75874 z"
     id="path3776"
     inkscape:connector-curvature="0"
     style="fill:#a0616a" />
  <path
     d="m 97.058298,240.83659 2.46952,9.87807 4.233452,7.76134 c 0,0 14.46432,9.52528 14.46432,13.05316 0,0 -6.35019,-8.11412 -14.46432,0 l -7.232152,-17.463 z"
     id="path3778"
     inkscape:connector-curvature="0"
     style="fill:#d0cde1" />
  <ellipse
     cx="84.956932"
     cy="158.17734"
     rx="16.16048"
     ry="9.69629"
     id="ellipse3780"
     style="fill:#2f2e41" />
  <path
     d="m 52.959768,158.98973 c 0,0 11.28923,-6.35019 15.87547,-1.76394 4.58624,4.58625 -13.75874,11.642 -13.75874,11.642 z"
     id="path3782"
     inkscape:connector-curvature="0"
     style="fill:#a0616a" />
  <path
     d="m 48.726308,193.91576 -2.46951,-1.76394 c 0,0 -2.82231,-4.23346 -5.29183,-2.82231 -2.46952,1.41115 -16.93383,-5.29182 -16.93383,-5.29182 0,0 5.29182,2.46952 5.29182,-1.76394 0,-4.23346 0.70558,-3.52788 4.23346,-3.52788 3.52788,0 3.52788,1.76394 4.939,-0.70558 1.41112,-2.46952 0.70557,-3.88067 3.17509,-2.46952 2.46952,1.41115 5.29182,0.35279 5.9974,-0.70557 0.70558,-1.05836 13.406,-2.82231 13.406,-2.82231 0,0 -4.939,-14.46432 -5.9974,-15.52268 -1.0584,-1.05836 -28.223,10.93643 -28.223,10.93643 0,0 -34.2204598,9.52529 -25.4007498,20.46172 8.8197098,10.93643 40.5705798,27.51748 40.5705798,27.51748 z"
     id="path3784"
     inkscape:connector-curvature="0"
     style="fill:#d0cde1" />
  <rect
     x="430.75922"
     y="339.5"
     width="147"
     height="193"
     id="rect3786"
     style="fill:#8072b3" />
  <rect
     x="471.25922"
     y="370"
     width="66"
     height="66"
     id="rect3788"
     style="fill:#3f3d56" />
  <rect
     x="446.25922"
     y="450"
     width="116"
     height="8"
     id="rect3790"
     style="fill:#3f3d56" />
  <rect
     x="446.25922"
     y="472"
     width="116"
     height="8"
     id="rect3792"
     style="fill:#3f3d56" />
  <rect
     x="446.25922"
     y="494"
     width="116"
     height="8"
     id="rect3794"
     style="fill:#3f3d56" />
  <path
     d="m 262.63251,548.93331 c 0,14.58087 -8.6676,19.672 -19.36056,19.672 q -0.37157,0 -0.742,-0.008 c -0.49543,-0.0106 -0.98615,-0.0342 -1.471,-0.0672 -9.6502,-0.683 -17.14766,-6.03594 -17.14766,-19.59647 0,-14.03354 17.93326,-31.7415 19.28034,-33.052 l 0.002,-0.002 c 0.0519,-0.0507 0.0779,-0.0755 0.0779,-0.0755 0,0 19.36066,18.54895 19.36066,33.12982 z"
     id="path3796"
     inkscape:connector-curvature="0"
     style="fill:#8072b3" />
  <path
     d="m 242.56658,566.37468 7.08105,-9.89437 -7.09875,10.98077 -0.0189,1.13594 c -0.49543,-0.0106 -0.98615,-0.0342 -1.471,-0.0672 l 0.7632,-14.58794 -0.006,-0.11325 0.013,-0.0212 0.0719,-1.37775 -7.11645,-11.00791 7.13886,9.97459 0.0165,0.29253 0.5768,-11.02205 -6.09255,-11.37476 6.16687,9.44024 0.6004,-22.851 0.002,-0.0779 v 0.0755 l -0.10026,18.01937 6.06544,-7.14358 -6.0902,8.69591 -0.16043,9.86842 5.6632,-9.4709 -5.68678,10.923 -0.0896,5.48625 8.22171,-13.18188 -8.25238,15.09636 z"
     id="path3798"
     inkscape:connector-curvature="0"
     style="fill:#3f3d56" />
</svg>
